
Tom Tryon plays the title role in this Otto Preminger version of the Henry Morton Robinson novel. In his matriculation from Monsignor to the College of Cardinals, Stephen Fermoyle (Tom Tryon) must undergo several grueling life experiences: standing up to bigots in Georgia, defying Nazis in Austria, and so on. The film boasts cameo appearances by Dorothy Gish, Cecil Kellaway, John Saxon, John Huston, Robert Morse, Burgess Meredith, Raf Vallone, Ossie Davis. Incidentally, Tryon eventually quit acting and became a popular novelist. 


 
http://www.imdb.com/title/tt0056907/



Span subs:


 
http://www.opensubtitles.org/en/subtitles/193955/the-cardinal-es



Awards:
Nominated for 6 Oscars. Another 4 wins & 5 nominations



Director:
Otto Preminger



	Tom Tryon	 ... 	Stephen Fermoyle
	Carol Lynley	... 	Mona Fermoyle / Regina Fermoyle
	Dorothy Gish	... 	Celia Fermoyle
	Maggie McNamara	... 	Florrie Fermoyle
	Bill Hayes	... 	Frank Fermoyle



 Video
      Format : MPEG-4 Visual
      Format profile : Streaming Video@L1
      Format settings, BVOP : Yes
      Format settings, QPel : No
      Format settings, GMC : No warppoints
      Format settings, Matrix : Custom
      Codec ID : XVID
      Codec ID/Hint : XviD
      Duration : 2h 54mn
      Bit rate : 730 Kbps
      Width : 704 pixels
      Height : 304 pixels
      Display aspect ratio : 2.35
      Frame rate : 25.000 fps
      Resolution : 24 bits
      Colorimetry : 4:2:0
      Scan type : Progressive
      Bits/(Pixel*Frame) : 0.136
      Stream size : 912 MiB (84%)
      Writing library : XviD 50
   Audio
      Format : MPEG Audio
      Format version : Version 1
      Format profile : Layer 3
      Codec ID : 55
      Codec ID/Hint : MP3
      Duration : 2h 54mn
      Bit rate mode : Constant
      Bit rate : 128 Kbps
      Minimum bit rate : 128 Kbps
      Channel(s) : 2 channels
      Sampling rate : 48.0 KHz
      Resolution : 16 bits
      Stream size : 160 MiB (15%)
      Alignment : Aligned on interleaves
      Interleave, duration : 80 ms (2.00 video frames)
      Interleave, preload duration : 504 ms
      Writing library : LAME3.98r
      Encoding settings : CBR
      Language : English